<svg xmlns="http://www.w3.org/2000/svg" width="554" height="365" xmlns:xlink="http://www.w3.org/1999/xlink" version="1.1"><g transform="translate(75 -0.66)"><g font-family="none" font-size="none" font-weight="none" style="mix-blend-mode: normal" fill="none" fill-rule="nonzero" stroke="none" stroke-dasharray="" stroke-dashoffset="0" stroke-linecap="none" stroke-linejoin="miter" stroke-miterlimit="10" stroke-width="2" text-anchor="none" data-paper-data="{&quot;isPaintingLayer&quot;:true}"><path fill="#000000" stroke="#000000" stroke-linecap="butt" d="M 0 12.66 v -11 h 478 v 11 Z"/><path fill="#000000" stroke="#000000" stroke-linecap="butt" d="M 467 358.66 v -356 h 11 v 356 Z" data-paper-data="{&quot;origPos&quot;:null}"/><path fill="#000000" stroke="#000000" stroke-linecap="butt" d="M -5 364.66 v -357 h 17 v 357 Z" data-paper-data="{&quot;origPos&quot;:null}"/><path fill="none" stroke="#000000" stroke-linecap="round" d="M 10 349.66 l -84 10"/><path fill="#000000" stroke="#000000" stroke-linecap="butt" d="M 3 360.66 v -13 h 467 v 13 Z" data-paper-data="{&quot;origPos&quot;:null}"/><path fill="#ff0000" stroke="#ff3232" stroke-linecap="butt" d="M 64 67.66 v -13 h 350 v 13 Z" data-paper-data="{&quot;origPos&quot;:null}"/><path fill="#ff0000" stroke="#ff3232" stroke-linecap="butt" d="M 63 309.66 v -186 h 12 v 186 Z" data-paper-data="{&quot;origPos&quot;:null}"/><path fill="#ff0000" stroke="#ff3232" stroke-linecap="butt" d="M 63 309.66 v -13 h 352 v 13 Z" data-paper-data="{&quot;origPos&quot;:null}"/><path fill="#001bff" stroke="#3360ff" stroke-linecap="butt" d="M 130.879 255.66 v -150 h 9.12102 v 150 Z" data-paper-data="{&quot;origPos&quot;:null}"/><path fill="#0044ff" stroke="#3360ff" stroke-linecap="butt" d="M 131 112.66 v -8 h 211 v 8 Z" data-paper-data="{&quot;origPos&quot;:null}"/><path fill="#ff0000" stroke="#ff3333" stroke-linecap="butt" d="M 405 309.66 v -255 h 13 v 255 Z" data-paper-data="{&quot;origPos&quot;:null}"/><path fill="#3700ff" stroke="#3340ff" stroke-linecap="butt" d="M 135 255.66 v -7 h 145 v 7 Z" data-paper-data="{&quot;origPos&quot;:null}"/><path fill="#3700ff" stroke="#3340ff" stroke-linecap="butt" d="M 272 253.66 v -78 h 8 v 78 Z" data-paper-data="{&quot;origPos&quot;:null}"/><path fill="#3700ff" stroke="#3340ff" stroke-linecap="butt" d="M 198 180.66 v -6 h 81 v 6 Z" data-paper-data="{&quot;origPos&quot;:null}"/><path fill="#3700ff" stroke="#3340ff" stroke-linecap="butt" d="M 332 258.66 v -99 h 10 v 99 Z" data-paper-data="{&quot;origPos&quot;:null}"/></g></g></svg>