<svg version="1.1" xmlns="http://www.w3.org/2000/svg" xmlns:xlink="http://www.w3.org/1999/xlink" width="554" height="364"><g transform="translate(75,-0.66)"><g data-paper-data="{&quot;isPaintingLayer&quot;:true}" fill="none" fill-rule="nonzero" stroke="none" stroke-width="2" stroke-linecap="none" stroke-linejoin="miter" stroke-miterlimit="10" stroke-dasharray="" stroke-dashoffset="0" font-family="none" font-weight="none" font-size="none" text-anchor="none" style="mix-blend-mode: normal"><path d="M0,12.66v-11h478v11z" data-paper-data="{&quot;origPos&quot;:null}" fill="#004f65" stroke="#004f65" stroke-linecap="butt"/><path d="M467,358.66v-356h11v356z" data-paper-data="{&quot;origPos&quot;:null}" fill="#004f65" stroke="#004f65" stroke-linecap="butt"/><path d="M-4,363.66v-357h17v357z" data-paper-data="{&quot;origPos&quot;:null}" fill="#004f65" stroke="#004f65" stroke-linecap="butt"/><path d="M10,349.66l-84,10" fill="none" stroke="#000000" stroke-linecap="round"/><path d="M3,360.66v-13h467v13z" data-paper-data="{&quot;origPos&quot;:null}" fill="#004f65" stroke="#004f65" stroke-linecap="butt"/><path d="M64,69.66v-15h350v15z" data-paper-data="{&quot;origPos&quot;:null}" fill="#ff0000" stroke="#ff0000" stroke-linecap="butt"/><path d="M63,309.66v-186h17v186z" data-paper-data="{&quot;origPos&quot;:null}" fill="#ff0000" stroke="#ff0000" stroke-linecap="butt"/><path d="M63,309.66v-13h352v13z" data-paper-data="{&quot;origPos&quot;:null}" fill="#ff0000" stroke="#ff0000" stroke-linecap="butt"/><path d="M130.879,255.66v-150h13.121v150z" data-paper-data="{&quot;origPos&quot;:null}" fill="#001bff" stroke="#001bff" stroke-linecap="butt"/><path d="M131,117.66v-13h211v13z" data-paper-data="{&quot;origPos&quot;:null}" fill="#001bff" stroke="#001bff" stroke-linecap="butt"/><path d="M403,309.66v-255h16v255z" data-paper-data="{&quot;origPos&quot;:null}" fill="#ff0000" stroke="#ff0000" stroke-linecap="butt"/><path d="M134,255.66v-13h145v13z" data-paper-data="{&quot;origPos&quot;:null}" fill="#001bff" stroke="#001bff" stroke-linecap="butt"/><path d="M270,255.66v-78h12v78z" data-paper-data="{&quot;origPos&quot;:null}" fill="#001bff" stroke="#001bff" stroke-linecap="butt"/><path d="M201,187.66v-11h81v11z" data-paper-data="{&quot;origPos&quot;:null}" fill="#001bff" stroke="#001bff" stroke-linecap="butt"/><path d="M332,257.66v-97h13v97z" data-paper-data="{&quot;origPos&quot;:null}" fill="#001bff" stroke="#001bff" stroke-linecap="butt"/></g></g></svg>